PathFileType	4	(X/Y/Z)	 control3min.trc
DataRate	CameraRate	NumFrames	NumMarkers	Units	OrigDataRate	OrigDataStartFrame	OrigNumFrames
200	200	9	43	m	200	251	1000
Frame#	Time	C7			LSH			RSH			MAN			RASI			LASI			HIPR			HIPL			RPSI			LPSI			COX			RTHI1			RTHI2			RTHI3			RTHI4			RLKN			RMKN			RSHA1			RSHA2			RSHA3			RSHA4			RLMAL			RMMAL			RHEEL			RMET5			RMET1			RTOE			LTHI1			LTHI2			LTHI3			LTHI4			LLKN			LMKN			LSHA1			LSHA2			LSHA3			LSHA4			LLMAL			LMMAL			LHEEL			LMET5			LMET1			LTOE			
		X1	Y1	Z1	X2	Y2	Z2	X3	Y3	Z3	X4	Y4	Z4	X5	Y5	Z5	X6	Y6	Z6	X7	Y7	Z7	X8	Y8	Z8	X9	Y9	Z9	X10	Y10	Z10	X11	Y11	Z11	X12	Y12	Z12	X13	Y13	Z13	X14	Y14	Z14	X15	Y15	Z15	X16	Y16	Z16	X17	Y17	Z17	X18	Y18	Z18	X19	Y19	Z19	X20	Y20	Z20	X21	Y21	Z21	X22	Y22	Z22	X23	Y23	Z23	X24	Y24	Z24	X25	Y25	Z25	X26	Y26	Z26	X27	Y27	Z27	X28	Y28	Z28	X29	Y29	Z29	X30	Y30	Z30	X31	Y31	Z31	X32	Y32	Z32	X33	Y33	Z33	X34	Y34	Z34	X35	Y35	Z35	X36	Y36	Z36	X37	Y37	Z37	X38	Y38	Z38	X39	Y39	Z39	X40	Y40	Z40	X41	Y41	Z41	X42	Y42	Z42	X43	Y43	Z43	
251	1.2550	-0.310707	1.569655	-0.529935	-0.245559	1.566473	-0.704780	-0.282827	1.563718	-0.343173	-0.159332	1.526377	-0.523641	-0.159223	1.059400	-0.403306	-0.147885	1.060551	-0.641481	-0.237241	1.133615	-0.359794	-0.215019	1.125178	-0.690026	-0.327560	1.123282	-0.486226	-0.323433	1.125940	-0.575224	-0.324004	1.127656	-0.527640	-0.254137	0.876003	-0.330718	-0.246201	0.817312	-0.324106	-0.181577	0.824367	-0.319934	-0.182186	0.885687	-0.327632	-0.239239	0.547765	-0.346843	-0.208635	0.533102	-0.463274	-0.320826	0.434498	-0.331545	-0.333126	0.394016	-0.342167	-0.274260	0.382407	-0.331891	-0.265489	0.421395	-0.326248	-0.355288	0.163923	-0.372480	-0.276285	0.168627	-0.438898	-0.392066	0.163842	-0.421622	-0.261092	0.072227	-0.343528	-0.200815	0.085476	-0.400549	-0.174877	0.075742	-0.390405	-0.241004	0.875069	-0.722761	-0.224450	0.816163	-0.730763	-0.160987	0.827795	-0.728888	-0.168471	0.887198	-0.721341	-0.232166	0.550077	-0.708994	-0.198364	0.542209	-0.589910	-0.308931	0.421562	-0.720356	-0.320863	0.383424	-0.713168	-0.260543	0.369691	-0.724535	-0.256679	0.413089	-0.730781	-0.338117	0.168748	-0.699285	-0.296918	0.181040	-0.616174	-0.383427	0.156390	-0.643603	-0.241968	0.071469	-0.715508	-0.189555	0.083551	-0.654397	-0.165736	0.071311	-0.663880	
252	1.2600	-0.310558	1.568442	-0.529971	-0.245380	1.564792	-0.705126	-0.282578	1.562027	-0.342864	-0.159228	1.524848	-0.523644	-0.159591	1.058088	-0.403401	-0.148198	1.059176	-0.641456	-0.237699	1.132213	-0.359879	-0.215331	1.123557	-0.690129	-0.328005	1.121665	-0.486322	-0.323821	1.124205	-0.575324	-0.324446	1.125935	-0.527745	-0.253739	0.874754	-0.330632	-0.245686	0.816062	-0.324071	-0.181062	0.823223	-0.320233	-0.181792	0.884539	-0.327918	-0.238498	0.546538	-0.346871	-0.208933	0.532013	-0.463643	-0.320355	0.433440	-0.331190	-0.332934	0.393067	-0.341676	-0.273966	0.381199	-0.332094	-0.265006	0.420139	-0.326442	-0.356068	0.163126	-0.372516	-0.277757	0.168056	-0.439932	-0.393310	0.163258	-0.421371	-0.261828	0.071227	-0.344597	-0.202032	0.084359	-0.402028	-0.175931	0.074572	-0.392212	-0.240807	0.873689	-0.722850	-0.224119	0.814813	-0.730787	-0.160679	0.826570	-0.728775	-0.168295	0.885964	-0.721261	-0.231586	0.548822	-0.709049	-0.198578	0.541108	-0.589761	-0.308410	0.420437	-0.720738	-0.320525	0.382333	-0.713592	-0.260087	0.368417	-0.724366	-0.256096	0.411804	-0.730650	-0.338682	0.167812	-0.699251	-0.298052	0.180147	-0.615893	-0.384450	0.155656	-0.643891	-0.242635	0.070272	-0.714592	-0.190784	0.082316	-0.653046	-0.166881	0.070068	-0.662296	
253	1.2650	-0.310399	1.566991	-0.530013	-0.245193	1.562850	-0.705474	-0.282318	1.560100	-0.342559	-0.159041	1.523087	-0.523615	-0.159977	1.056580	-0.403484	-0.148524	1.057598	-0.641463	-0.238221	1.130613	-0.359992	-0.215661	1.121766	-0.690212	-0.328470	1.119832	-0.486418	-0.324228	1.122253	-0.575414	-0.324904	1.123999	-0.527849	-0.253379	0.873265	-0.330541	-0.245197	0.814575	-0.324053	-0.180583	0.821843	-0.320492	-0.181450	0.883154	-0.328175	-0.237688	0.545069	-0.346892	-0.209246	0.530710	-0.464042	-0.319788	0.432130	-0.330741	-0.332616	0.391895	-0.341111	-0.273559	0.379723	-0.332299	-0.264433	0.418599	-0.326613	-0.356821	0.162113	-0.372570	-0.279223	0.167259	-0.440971	-0.394495	0.162543	-0.421128	-0.262652	0.069852	-0.345684	-0.203250	0.082894	-0.403534	-0.177060	0.072926	-0.394037	-0.240696	0.872120	-0.722880	-0.223890	0.813269	-0.730774	-0.160469	0.825145	-0.728695	-0.168203	0.884527	-0.721207	-0.231024	0.547320	-0.709111	-0.198868	0.539773	-0.589588	-0.307895	0.419061	-0.721134	-0.320180	0.380988	-0.714041	-0.259626	0.366889	-0.724227	-0.255519	0.410279	-0.730537	-0.339316	0.166671	-0.699264	-0.299183	0.178997	-0.615678	-0.385506	0.154754	-0.644186	-0.243504	0.068816	-0.713873	-0.192157	0.080650	-0.651889	-0.168233	0.068390	-0.660952	
254	1.2700	-0.310231	1.565299	-0.530064	-0.244997	1.560653	-0.705822	-0.282047	1.557940	-0.342262	-0.158788	1.521103	-0.523560	-0.160381	1.054875	-0.403552	-0.148869	1.055814	-0.641507	-0.238802	1.128816	-0.360120	-0.216024	1.119805	-0.690273	-0.328949	1.117791	-0.486514	-0.324644	1.120093	-0.575502	-0.325370	1.121857	-0.527950	-0.253059	0.871533	-0.330442	-0.244741	0.812836	-0.324054	-0.180136	0.820224	-0.320718	-0.181156	0.881534	-0.328406	-0.236814	0.543359	-0.346901	-0.209533	0.529184	-0.464450	-0.319155	0.430590	-0.330211	-0.332170	0.390522	-0.340482	-0.273056	0.378002	-0.332499	-0.263776	0.416786	-0.326760	-0.357544	0.160892	-0.372638	-0.280662	0.166172	-0.441973	-0.395625	0.161694	-0.420893	-0.263606	0.068114	-0.346805	-0.204552	0.081005	-0.405036	-0.178305	0.070762	-0.395860	-0.240666	0.870346	-0.722857	-0.223754	0.811519	-0.730724	-0.160353	0.823510	-0.728647	-0.168192	0.882878	-0.721171	-0.230481	0.545570	-0.709186	-0.199201	0.538190	-0.589412	-0.307429	0.417455	-0.721533	-0.319890	0.379409	-0.714491	-0.259220	0.365133	-0.724116	-0.254999	0.408519	-0.730458	-0.340047	0.165321	-0.699316	-0.300347	0.177567	-0.615526	-0.386610	0.153676	-0.644478	-0.244601	0.067070	-0.713318	-0.193681	0.078628	-0.650949	-0.169782	0.066330	-0.659874	
255	1.2750	-0.310052	1.563358	-0.530127	-0.244792	1.558204	-0.706165	-0.281765	1.555549	-0.341976	-0.158500	1.518887	-0.523495	-0.160800	1.052968	-0.403603	-0.149222	1.053812	-0.641577	-0.239428	1.126831	-0.360259	-0.216418	1.117673	-0.690308	-0.329436	1.115548	-0.486611	-0.325062	1.117739	-0.575586	-0.325834	1.119517	-0.528047	-0.252784	0.869549	-0.330363	-0.244313	0.810840	-0.324076	-0.179724	0.818374	-0.320912	-0.180908	0.879687	-0.328604	-0.235879	0.541398	-0.346885	-0.209756	0.527439	-0.464848	-0.318473	0.428843	-0.329618	-0.331625	0.388939	-0.339846	-0.272477	0.376051	-0.332695	-0.263033	0.414777	-0.326909	-0.358234	0.159465	-0.372717	-0.282073	0.164813	-0.442944	-0.396686	0.160725	-0.420678	-0.264734	0.065944	-0.348004	-0.205938	0.078674	-0.406504	-0.179677	0.068060	-0.397633	-0.240714	0.868361	-0.722783	-0.223708	0.809552	-0.730646	-0.160325	0.821657	-0.728629	-0.168257	0.881006	-0.721148	-0.229950	0.543570	-0.709279	-0.199524	0.536347	-0.589253	-0.307053	0.415629	-0.721918	-0.319695	0.377624	-0.714917	-0.258937	0.363160	-0.724053	-0.254580	0.406527	-0.730427	-0.340891	0.163773	-0.699408	-0.301548	0.175878	-0.615444	-0.387769	0.152424	-0.644768	-0.245896	0.065101	-0.712955	-0.195367	0.076244	-0.650229	-0.171515	0.063927	-0.659066	
256	1.2800	-0.309861	1.561168	-0.530203	-0.244576	1.555501	-0.706503	-0.281474	1.552928	-0.341705	-0.158224	1.516475	-0.523436	-0.161238	1.050856	-0.403638	-0.149581	1.051581	-0.641667	-0.240087	1.124647	-0.360408	-0.216832	1.115365	-0.690314	-0.329927	1.113111	-0.486707	-0.325480	1.115199	-0.575667	-0.326296	1.116992	-0.528145	-0.252553	0.867302	-0.330306	-0.243916	0.808591	-0.324106	-0.179345	0.816291	-0.321083	-0.180709	0.877608	-0.328774	-0.234930	0.539169	-0.346868	-0.209877	0.525470	-0.465218	-0.317716	0.426881	-0.329008	-0.330985	0.387134	-0.339216	-0.271842	0.373879	-0.332884	-0.262222	0.412559	-0.327054	-0.358906	0.157837	-0.372817	-0.283455	0.163163	-0.443890	-0.397686	0.159633	-0.420472	-0.266020	0.063367	-0.349253	-0.207472	0.075774	-0.407967	-0.181215	0.064853	-0.399432	-0.240837	0.866148	-0.722669	-0.223741	0.807354	-0.730548	-0.160379	0.819572	-0.728638	-0.168401	0.878900	-0.721145	-0.229438	0.541323	-0.709393	-0.199790	0.534231	-0.589133	-0.306793	0.413597	-0.722272	-0.319606	0.375639	-0.715306	-0.258830	0.360958	-0.724048	-0.254297	0.404311	-0.730449	-0.341856	0.162027	-0.699532	-0.302754	0.173950	-0.615420	-0.388996	0.150991	-0.645049	-0.247397	0.062919	-0.712797	-0.197198	0.073537	-0.649742	-0.173399	0.061216	-0.658508	
257	1.2850	-0.309657	1.558726	-0.530296	-0.244316	1.552548	-0.706817	-0.281179	1.550077	-0.341455	-0.157993	1.513849	-0.523399	-0.161690	1.048530	-0.403651	-0.149947	1.049105	-0.641769	-0.240770	1.122273	-0.360558	-0.217267	1.112876	-0.690295	-0.330417	1.110484	-0.486802	-0.325888	1.112486	-0.575745	-0.326747	1.114292	-0.528244	-0.252364	0.864791	-0.330270	-0.243550	0.806104	-0.324147	-0.179001	0.813982	-0.321235	-0.180561	0.875294	-0.328914	-0.233948	0.536698	-0.346842	-0.209871	0.523271	-0.465535	-0.316875	0.424700	-0.328433	-0.330263	0.385111	-0.338634	-0.271165	0.371489	-0.333068	-0.261365	0.410127	-0.327187	-0.359561	0.156003	-0.372926	-0.284808	0.161222	-0.444797	-0.398638	0.158420	-0.420270	-0.267436	0.060423	-0.350543	-0.209115	0.072547	-0.409535	-0.182921	0.061187	-0.401289	-0.241031	0.863683	-0.722526	-0.223847	0.804911	-0.730442	-0.160507	0.817241	-0.728673	-0.168617	0.876558	-0.721155	-0.228948	0.538828	-0.709534	-0.199955	0.531831	-0.589065	-0.306660	0.411366	-0.722589	-0.319641	0.373465	-0.715645	-0.258898	0.358569	-0.724115	-0.254162	0.401870	-0.730528	-0.342954	0.160087	-0.699687	-0.303993	0.171795	-0.615460	-0.390301	0.149369	-0.645319	-0.249081	0.060519	-0.712825	-0.199153	0.070552	-0.649477	-0.175427	0.058220	-0.658216	
258	1.2900	-0.309442	1.556026	-0.530404	-0.244003	1.549346	-0.707102	-0.280882	1.546997	-0.341230	-0.157810	1.511002	-0.523387	-0.162154	1.045981	-0.403637	-0.150323	1.046385	-0.641870	-0.241466	1.119699	-0.360707	-0.217717	1.110196	-0.690257	-0.330901	1.107668	-0.486895	-0.326282	1.109601	-0.575823	-0.327182	1.111416	-0.528338	-0.252225	0.862019	-0.330264	-0.243224	0.803361	-0.324199	-0.178692	0.811452	-0.321364	-0.180460	0.872755	-0.329029	-0.232908	0.533998	-0.346790	-0.209722	0.520838	-0.465780	-0.315955	0.422308	-0.327927	-0.329507	0.382844	-0.338116	-0.270463	0.368879	-0.333249	-0.260464	0.407481	-0.327334	-0.360209	0.153979	-0.373052	-0.286135	0.158972	-0.445669	-0.399568	0.157064	-0.420064	-0.268957	0.057240	-0.351869	-0.210940	0.068878	-0.411158	-0.184792	0.057151	-0.403199	-0.241289	0.860961	-0.722360	-0.224018	0.802213	-0.730337	-0.160699	0.814661	-0.728732	-0.168895	0.873970	-0.721175	-0.228469	0.536090	-0.709709	-0.199989	0.529131	-0.589065	-0.306648	0.408944	-0.722867	-0.319803	0.371107	-0.715931	-0.259136	0.355947	-0.724233	-0.254171	0.399218	-0.730664	-0.344186	0.157955	-0.699878	-0.305283	0.169417	-0.615560	-0.391693	0.147566	-0.645589	-0.250960	0.057921	-0.713003	-0.201237	0.067332	-0.649448	-0.177589	0.054977	-0.658179	
259	1.2950	-0.309216	1.553067	-0.530528	-0.243638	1.545899	-0.707358	-0.280590	1.543686	-0.341038	-0.157603	1.507898	-0.523372	-0.162630	1.043195	-0.403596	-0.150704	1.043408	-0.641964	-0.242161	1.116914	-0.360852	-0.218158	1.107311	-0.690209	-0.331379	1.104663	-0.486982	-0.326667	1.106549	-0.575892	-0.327598	1.108363	-0.528423	-0.252132	0.858990	-0.330288	-0.242924	0.800375	-0.324258	-0.178419	0.808704	-0.321471	-0.180409	0.869995	-0.329118	-0.231813	0.531069	-0.346709	-0.209416	0.518174	-0.465949	-0.314962	0.419692	-0.327530	-0.328736	0.380325	-0.337676	-0.269749	0.366052	-0.333428	-0.259539	0.404647	-0.327497	-0.360872	0.151772	-0.373203	-0.287447	0.156444	-0.446514	-0.400502	0.155549	-0.419864	-0.270567	0.053847	-0.353233	-0.212902	0.064894	-0.412855	-0.186818	0.052808	-0.405198	-0.241604	0.857972	-0.722186	-0.224246	0.799259	-0.730240	-0.160943	0.811830	-0.728812	-0.169231	0.871121	-0.721201	-0.228003	0.533107	-0.709917	-0.199868	0.526125	-0.589141	-0.306741	0.406326	-0.723113	-0.320067	0.368563	-0.716173	-0.259513	0.353128	-0.724416	-0.254303	0.396351	-0.730855	-0.345556	0.155639	-0.700109	-0.306624	0.166841	-0.615715	-0.393188	0.145581	-0.645861	-0.253033	0.055126	-0.713340	-0.203456	0.063842	-0.649587	-0.179878	0.051472	-0.658360	
